  <svg xmlns="http://www.w3.org/2000/svg" style="display: none;">

    <symbol id="spray" fill="none">
      <path d="M1.50045 62.6901C15.9469 67.6191 23.1601 72.5311 34.4507 84.5903" stroke="inherit" stroke-width="3"
        stroke-linecap="round" />
      <path d="M117 141.501C121 145.501 124.001 147.5 124 159" stroke="inherit" stroke-width="3"
        stroke-linecap="round" />
      <path d="M153.999 106.327C169.253 105.779 181.65 111.762 196.499 119" stroke="inherit" stroke-width="3"
        stroke-linecap="round" />
      <path d="M3.99897 133.501C19.4989 129 28.4992 128.5 41.6775 126.315" stroke="inherit" stroke-width="3"
        stroke-linecap="round" />
      <path d="M48.999 202C60.499 188.5 63.6526 182.228 70.2853 170.632" stroke="inherit" stroke-width="3"
        stroke-linecap="round" />
      <path d="M99.0002 1.50074C99.999 24.5005 100.999 30.5005 104.5 47.0007" stroke="inherit" stroke-width="3"
        stroke-linecap="round" />
      <path d="M166.072 27.5001C148.397 42.2506 144.235 46.6863 133.244 59.4812" stroke="inherit" stroke-width="3"
        stroke-linecap="round" />
      <path d="M61.3285 24.3327C68.6691 36.5645 68.6688 36.5645 71.5251 46.1294" stroke="inherit" stroke-width="3"
        stroke-linecap="round" />
    </symbol>

    <symbol id="spray-2">
      <path d="M14.4672 53.9997C28.9137 58.9286 36.1269 63.8407 47.4175 75.8999" stroke="inherit" stroke-width="3"
        stroke-linecap="round" />
      <path d="M280.468 165.542C290.405 177.127 294.122 185.023 297.719 201.147" stroke="inherit" stroke-width="3"
        stroke-linecap="round" />
      <path d="M1.50013 168.648C13.9595 158.388 22.0294 154.372 33.2712 147.156" stroke="inherit" stroke-width="3"
        stroke-linecap="round" />
      <path d="M96.4673 203.027C107.967 189.527 111.121 183.255 117.754 171.66" stroke="inherit" stroke-width="3"
        stroke-linecap="round" />
      <path d="M223.913 9.99976C224.912 32.9995 225.912 38.9995 229.412 55.4997" stroke="inherit" stroke-width="3"
        stroke-linecap="round" />
      <path d="M121.467 44.2444C130.981 54.8734 130.981 54.8735 135.589 63.7286" stroke="inherit" stroke-width="3"
        stroke-linecap="round" />
      <path d="M205.467 181.244C214.982 191.873 214.981 191.874 219.589 200.729" stroke="inherit" stroke-width="3"
        stroke-linecap="round" />
      <path d="M341.468 104.827C356.722 104.279 369.119 110.262 383.968 117.5" stroke="inherit" stroke-width="3"
        stroke-linecap="round" />
      <path d="M353.54 26.0001C335.865 40.7506 331.703 45.1863 320.712 57.9812" stroke="inherit" stroke-width="3"
        stroke-linecap="round" />
    </symbol>

    <symbol id="semicircle" fill="none">
      <path d="M194.067 1.5C397.091 14.4672 81.6794 100.362 1.5003 37.5228" stroke="inherit" stroke-width="3"
        stroke-linecap="round" />
    </symbol>

    <symbol id="line-1" fill="none">
      <path d="M1.5 6.00195C57 -3.49957 113.5 15.5019 178.5 1.5" stroke="inherit" stroke-width="3"
        stroke-linecap="round" />
    </symbol>

    <symbol id="line-2" fill="none">
      <path d="M175 3.5C83.5 -1.00195 75.5 6.00195 1.49999 1.5" stroke="inherit" stroke-width="3"
        stroke-linecap="round" />
    </symbol>

    <symbol id="arrow-pointer-1">
      <path
        d="M85.7642 92.0459C86.5926 92.0459 87.2642 91.3743 87.2642 90.5459C87.2642 89.7175 86.5926 89.0459 85.7642 89.0459L85.7642 90.5459L85.7642 92.0459ZM63.8248 12.1062C64.4106 11.5204 64.4106 10.5706 63.8248 9.98483L54.2789 0.438885C53.6931 -0.1469 52.7433 -0.1469 52.1576 0.438885C51.5718 1.02468 51.5718 1.97442 52.1576 2.56021L60.6428 11.0455L52.1576 19.5308C51.5718 20.1166 51.5718 21.0663 52.1576 21.6521C52.7433 22.2379 53.6931 22.2379 54.2789 21.6521L63.8248 12.1062ZM85.7642 90.5459L85.7642 89.0459C53.3743 89.046 32.019 84.0869 19.134 76.8177C6.32786 69.5929 2.0033 60.1868 3.18934 50.9876C4.3966 41.624 11.3633 32.0193 22.1302 24.7084C32.8623 17.4213 47.1945 12.5455 62.7642 12.5455V11.0455V9.54549C46.5838 9.54549 31.6661 14.6073 20.445 22.2265C9.25876 29.8221 1.56922 40.0925 0.213971 50.604C-1.16248 61.28 4.0442 71.749 17.6599 79.4305C31.1968 87.0676 53.154 92.046 85.7642 92.0459L85.7642 90.5459Z"
        fill="inherit" />
    </symbol>

    <symbol id="arrow-pointer-2" width="130" height="131" viewBox="0 0 130 131" fill="#7142DE">
      <path
        d="M128.908 10.0443C129.677 10.3513 130.052 11.224 129.745 11.9934C129.438 12.7629 128.566 13.1377 127.796 12.8307L128.352 11.4375L128.908 10.0443ZM21.3425 129.607C21.2494 130.43 20.5066 131.022 19.6834 130.929L6.269 129.411C5.44582 129.318 4.854 128.575 4.94711 127.752C5.04024 126.929 5.78304 126.337 6.60622 126.43L18.5302 127.779L19.8791 115.855C19.9722 115.032 20.715 114.44 21.5382 114.533C22.3613 114.626 22.9532 115.369 22.86 116.192L21.3425 129.607ZM128.352 11.4375L127.796 12.8307C76.3069 -7.71493 37.6985 6.35129 17.927 32.7131C-1.9133 59.1669 -3.04907 98.2876 21.0252 128.503L19.8521 129.438L18.6789 130.373C-6.24683 99.0884 -5.1326 58.4593 15.5271 30.9132C36.2556 3.27505 76.3972 -10.9089 128.908 10.0443L128.352 11.4375Z"
        fill="inherit" />
    </symbol>

    <symbol id="arrow-pointer-3" width="234" height="122" viewBox="0 0 234 122" fill="#7142DE">
      <path
        d="M-1.78814e-07 1.49981C-1.78814e-07 0.67138 0.671573 -0.000189725 1.5 -0.000189725C2.32843 -0.000189725 3 0.67138 3 1.49981H1.5H-1.78814e-07ZM233.231 104.689C233.955 105.093 234.214 106.006 233.81 106.73L227.229 118.517C226.825 119.241 225.912 119.5 225.188 119.096C224.465 118.692 224.206 117.778 224.61 117.055L230.459 106.577L219.981 100.728C219.258 100.324 218.999 99.4103 219.403 98.6869C219.806 97.9636 220.72 97.7046 221.444 98.1084L233.231 104.689ZM1.5 1.49981H3C3 37.008 20.3782 74.0047 57.5892 96.5285C94.8098 119.058 152.097 127.233 232.091 104.555L232.5 105.999L232.909 107.442C152.403 130.264 94.1902 122.19 56.0358 99.0949C17.8718 75.9943 -1.78814e-07 37.9916 -1.78814e-07 1.49981H1.5Z"
        fill="inherit" />
    </symbol>

    <symbol id="arrow-pointer-4" width="292" height="99" viewBox="0 0 292 99" fill="#7142DE">
      <path
        d="M0.142368 21.6563C-0.20974 20.9064 0.112714 20.0131 0.862588 19.661C1.61246 19.3089 2.5058 19.6314 2.8579 20.3812L1.50014 21.0188L0.142368 21.6563ZM287.104 51.7954C286.829 52.5768 285.973 52.9871 285.191 52.7118L272.458 48.2263C271.677 47.951 271.267 47.0945 271.542 46.3131C271.817 45.5317 272.674 45.1215 273.455 45.3967L284.773 49.3839L288.76 38.0656C289.036 37.2842 289.892 36.874 290.674 37.1492C291.455 37.4245 291.865 38.281 291.59 39.0624L287.104 51.7954ZM1.50014 21.0188L2.8579 20.3812C29.619 77.3735 55.0575 95.8437 79.0775 95.4533C91.1785 95.2566 103.188 90.2909 115.169 82.5893C127.149 74.8892 138.976 64.5369 150.712 53.7217C162.412 42.9394 174.045 31.673 185.511 22.3034C196.973 12.9369 208.43 5.32631 219.861 1.92523C231.376 -1.50129 242.852 -0.646617 254.157 6.86033C265.377 14.3108 276.305 28.2313 287.042 50.649L285.69 51.297L284.337 51.945C273.7 29.7377 263.065 16.3769 252.497 9.35951C242.014 2.39856 231.477 1.5987 220.716 4.80064C209.87 8.02802 198.787 15.3288 187.409 24.6264C176.035 33.9208 164.526 45.0712 152.745 55.9277C141 66.7514 129.008 77.2602 116.791 85.113C104.577 92.9643 92.0129 98.2434 79.1263 98.4529C53.1711 98.8748 26.976 78.8032 0.142368 21.6563L1.50014 21.0188Z"
        fill="inherit" />
    </symbol>

    <symbol id="arrow-pointer-5" width="136" height="80" viewBox="0 0 136 80" fill="#7142DE">
      <path
        d="M133.809 1.44147C134.626 1.58126 135.174 2.35653 135.035 3.17308C134.895 3.98962 134.12 4.53824 133.303 4.39845L133.556 2.91996L133.809 1.44147ZM16.2911 78.3151C16.1532 79.132 15.3792 79.6824 14.5623 79.5445L1.25067 77.2973C0.433807 77.1594 -0.116608 76.3854 0.0212854 75.5685C0.159194 74.7516 0.933181 74.2012 1.75006 74.3391L13.5826 76.3367L15.5802 64.5041C15.7181 63.6872 16.4921 63.1368 17.3089 63.2747C18.1258 63.4126 18.6762 64.1866 18.5383 65.0035L16.2911 78.3151ZM133.556 2.91996L133.303 4.39845C105.935 -0.286912 68.5858 7.1583 42.0807 21.3769C28.8257 28.4876 18.4803 37.1883 13.3836 46.7118C10.8472 51.4511 9.61829 56.3772 9.94726 61.4298C10.2762 66.4824 12.1696 71.7614 16.0344 77.1961L14.812 78.0654L13.5896 78.9347C9.45438 73.1198 7.32417 67.3163 6.9536 61.6247C6.58302 55.9331 7.97862 50.4534 10.7386 45.2962C16.2345 35.0267 27.1689 25.9719 40.6625 18.7333C67.6544 4.25351 105.677 -3.37469 133.809 1.44147L133.556 2.91996Z"
        fill="inherit" />
    </symbol>

    <symbol id="review-decoration">

      <path
        d="M43.8192 54.2461C29.8442 56.3961 16.0484 48.7008 11.5692 43.7737C16.186 32.7645 -12.3171 6.025 6.49543 6.02397C10.8454 6.02397 14.5608 -5.37125 30.3817 3.18362C30.4387 6.642 30.3817 18.6131 30.3817 20.6513C30.3817 48.87 46.5067 52.6248 43.8192 54.2461Z"
        fill="inherit" />

    </symbol>

  </svg>